<?xml version="1.0" encoding="utf-8"?>
<!-- Generator: Adobe Illustrator 23.0.0, SVG Export Plug-In . SVG Version: 6.00 Build 0)  -->
<!DOCTYPE svg PUBLIC "-//W3C//DTD SVG 1.1//EN" "http://www.w3.org/Graphics/SVG/1.1/DTD/svg11.dtd" [
	<!ENTITY ns_extend "http://ns.adobe.com/Extensibility/1.0/">
	<!ENTITY ns_ai "http://ns.adobe.com/AdobeIllustrator/10.0/">
	<!ENTITY ns_graphs "http://ns.adobe.com/Graphs/1.0/">
	<!ENTITY ns_vars "http://ns.adobe.com/Variables/1.0/">
	<!ENTITY ns_imrep "http://ns.adobe.com/ImageReplacement/1.0/">
	<!ENTITY ns_sfw "http://ns.adobe.com/SaveForWeb/1.0/">
	<!ENTITY ns_custom "http://ns.adobe.com/GenericCustomNamespace/1.0/">
	<!ENTITY ns_adobe_xpath "http://ns.adobe.com/XPath/1.0/">
	<!ENTITY st0 "fill:#AD8141;">
]>
<svg version="1.1" id="图层_1" xmlns:x="&ns_extend;" xmlns:i="&ns_ai;" xmlns:graph="&ns_graphs;"
	 xmlns="http://www.w3.org/2000/svg" xmlns:xlink="http://www.w3.org/1999/xlink" x="0px" y="0px" viewBox="0 0 200 200"
	 style="enable-background:new 0 0 200 200;" xml:space="preserve">
<metadata>
	<sfw  xmlns="&ns_sfw;">
		<slices></slices>
		<sliceSourceBounds  bottomLeftOrigin="true" height="200" width="200" x="0" y="-0.61"></sliceSourceBounds>
	</sfw>
</metadata>
<path style="fill:#AD8141;" d="M187.5,200.61H13.57c-7.5,0-13.57-6.08-13.57-13.57c0,0,0,0,0,0v-73.64c0-0.19,0.05-0.37,0.14-0.54
	l24.71-42.81C24.95,69.9,25,69.71,25,69.53V14.19c0-7.5,6.08-13.57,13.57-13.57c0,0,0,0,0,0h98.48c0.28,0,0.56,0.11,0.76,0.32
	l36.87,36.87c0.2,0.2,0.31,0.47,0.31,0.76v36.74c0,0.21,0.06,0.42,0.18,0.6l24.64,36.96c0.12,0.18,0.18,0.38,0.18,0.6v74.68
	C200,195.02,194.4,200.61,187.5,200.61L187.5,200.61z M23.04,97.68l-9.4,13.75c-0.33,0.49-0.21,1.16,0.28,1.49
	c0.18,0.12,0.39,0.19,0.61,0.19h9.39c0.59,0,1.07-0.48,1.07-1.07c0,0,0,0,0,0V98.29c0-0.59-0.48-1.07-1.07-1.07
	C23.57,97.22,23.24,97.39,23.04,97.68z M137.5,24.54c0,7.5,6.08,13.57,13.57,13.57c0.59,0,1.07-0.48,1.07-1.07
	c0-0.29-0.11-0.56-0.32-0.76l-12.5-12.5c-0.42-0.42-1.1-0.42-1.52,0C137.61,23.98,137.5,24.26,137.5,24.54z M161.43,50.61h-22.85
	c-7.5,0-13.57-6.08-13.57-13.57c0,0,0,0,0,0V14.19c0-0.59-0.48-1.07-1.07-1.07H51.07c-7.5,0-13.57,6.08-13.57,13.57l0,0v85.36
	c0,0.59,0.48,1.07,1.07,1.07c0,0,0,0,0,0h22.87c0.58,0,1.05,0.46,1.07,1.04c0.58,20.7,17.83,37.02,38.53,36.44
	c19.89-0.56,35.88-16.55,36.44-36.44c0.02-0.58,0.49-1.04,1.07-1.04h22.87c0.59,0,1.07-0.48,1.07-1.07c0,0,0,0,0,0V51.69
	C162.5,51.1,162.02,50.62,161.43,50.61L161.43,50.61z M175,103.21v8.84c0,0.59,0.48,1.07,1.07,1.07c0,0,0,0,0,0h8.84
	c0.59,0,1.07-0.48,1.07-1.07c0-0.29-0.11-0.56-0.32-0.76l-8.84-8.84c-0.42-0.42-1.1-0.42-1.52,0
	C175.11,102.64,175,102.92,175,103.21L175,103.21z M63.57,75.62h72.86c0.59,0,1.07,0.48,1.07,1.07c0,0,0,0,0,0v10.35
	c0,0.59-0.48,1.07-1.07,1.07c0,0,0,0,0,0H63.57c-0.59,0-1.07-0.48-1.07-1.07c0,0,0,0,0,0V76.69C62.5,76.09,62.98,75.61,63.57,75.62
	L63.57,75.62z M63.57,50.62h47.85c0.59,0,1.07,0.48,1.07,1.07c0,0,0,0,0,0v10.35c0,0.59-0.48,1.07-1.07,1.07c0,0,0,0,0,0H63.57
	c-0.59,0-1.07-0.48-1.07-1.07V51.69C62.5,51.09,62.98,50.62,63.57,50.62C63.57,50.61,63.57,50.61,63.57,50.62L63.57,50.62z"/>
</svg>
