<?xml version="1.0" encoding="utf-8"?>
<!-- Generator: Adobe Illustrator 23.0.0, SVG Export Plug-In . SVG Version: 6.00 Build 0)  -->
<!DOCTYPE svg PUBLIC "-//W3C//DTD SVG 1.1//EN" "http://www.w3.org/Graphics/SVG/1.1/DTD/svg11.dtd" [
	<!ENTITY ns_extend "http://ns.adobe.com/Extensibility/1.0/">
	<!ENTITY ns_ai "http://ns.adobe.com/AdobeIllustrator/10.0/">
	<!ENTITY ns_graphs "http://ns.adobe.com/Graphs/1.0/">
	<!ENTITY ns_vars "http://ns.adobe.com/Variables/1.0/">
	<!ENTITY ns_imrep "http://ns.adobe.com/ImageReplacement/1.0/">
	<!ENTITY ns_sfw "http://ns.adobe.com/SaveForWeb/1.0/">
	<!ENTITY ns_custom "http://ns.adobe.com/GenericCustomNamespace/1.0/">
	<!ENTITY ns_adobe_xpath "http://ns.adobe.com/XPath/1.0/">
	<!ENTITY st0 "fill:#FFFFFF;">
	<!ENTITY st1 "opacity:0.9;fill:#FFFFFF;enable-background:new    ;">
	<!ENTITY st2 "opacity:0.85;fill:#FFFFFF;enable-background:new    ;">
	<!ENTITY st3 "opacity:0.8;fill:#FFFFFF;enable-background:new    ;">
	<!ENTITY st4 "opacity:0.75;fill:#FFFFFF;enable-background:new    ;">
	<!ENTITY st5 "opacity:0.7;fill:#FFFFFF;enable-background:new    ;">
	<!ENTITY st6 "opacity:0.65;fill:#FFFFFF;enable-background:new    ;">
	<!ENTITY st7 "opacity:0.6;fill:#FFFFFF;enable-background:new    ;">
	<!ENTITY st8 "opacity:0.55;fill:#FFFFFF;enable-background:new    ;">
	<!ENTITY st9 "opacity:0.5;fill:#FFFFFF;enable-background:new    ;">
	<!ENTITY st10 "opacity:0.4;fill:#FFFFFF;enable-background:new    ;">
	<!ENTITY st11 "opacity:0.3;fill:#FFFFFF;enable-background:new    ;">
]>
<svg version="1.1" id="图层_1" xmlns:x="&ns_extend;" xmlns:i="&ns_ai;" xmlns:graph="&ns_graphs;"
	 xmlns="http://www.w3.org/2000/svg" xmlns:xlink="http://www.w3.org/1999/xlink" x="0px" y="0px" viewBox="0 0 200 200"
	 style="enable-background:new 0 0 200 200;" xml:space="preserve">
<metadata>
	<sfw  xmlns="&ns_sfw;">
		<slices></slices>
		<sliceSourceBounds  bottomLeftOrigin="true" height="133.33" width="133.33" x="33.33" y="33.33"></sliceSourceBounds>
	</sfw>
</metadata>
<path style="fill:#FFFFFF;" d="M100,65.88c-2.88,0-5.21-2.33-5.21-5.21V38.54c0-2.88,2.33-5.21,5.21-5.21c2.88,0,5.21,2.33,5.21,5.21v22.13
	C105.21,63.56,102.88,65.88,100,65.88z"/>
<path style="opacity:0.9;fill:#FFFFFF;enable-background:new    ;" d="M82.94,70.46c-2.49,1.43-5.67,0.58-7.11-1.9L64.77,49.39c-1.32-2.55-0.33-5.7,2.23-7.02
	c2.39-1.24,5.33-0.45,6.78,1.81l11.07,19.17C86.28,65.84,85.43,69.02,82.94,70.46C82.94,70.46,82.94,70.46,82.94,70.46z"/>
<path style="opacity:0.85;fill:#FFFFFF;enable-background:new    ;" d="M70.46,82.94c-1.44,2.49-4.62,3.34-7.1,1.9c0,0,0,0,0,0L44.18,73.78c-2.49-1.44-3.34-4.62-1.9-7.11
	c1.44-2.49,4.62-3.34,7.11-1.9l19.17,11.07C71.04,77.27,71.89,80.46,70.46,82.94z"/>
<path style="opacity:0.8;fill:#FFFFFF;enable-background:new    ;" d="M65.88,100c0,2.87-2.33,5.21-5.21,5.21H38.54c-2.88,0-5.21-2.33-5.21-5.21c0-2.88,2.33-5.21,5.21-5.21h22.13
	C63.56,94.79,65.88,97.13,65.88,100z"/>
<path style="opacity:0.75;fill:#FFFFFF;enable-background:new    ;" d="M70.46,117.06c1.43,2.49,0.58,5.67-1.9,7.11l-19.17,11.07c-2.55,1.32-5.7,0.33-7.02-2.23
	c-1.24-2.39-0.45-5.33,1.81-6.78l19.17-11.07C65.84,113.72,69.02,114.57,70.46,117.06C70.46,117.06,70.46,117.06,70.46,117.06z"/>
<path style="opacity:0.7;fill:#FFFFFF;enable-background:new    ;" d="M82.94,129.54c2.49,1.44,3.34,4.62,1.9,7.1c0,0,0,0,0,0l-11.07,19.17c-1.44,2.49-4.62,3.34-7.11,1.9
	c-2.49-1.44-3.34-4.62-1.9-7.11l0,0l11.07-19.17C77.27,128.96,80.45,128.11,82.94,129.54L82.94,129.54z"/>
<path style="opacity:0.65;fill:#FFFFFF;enable-background:new    ;" d="M100,134.12c2.87,0,5.21,2.33,5.21,5.21v22.13c0,2.88-2.33,5.21-5.21,5.21c-2.88,0-5.21-2.33-5.21-5.21
	v-22.13C94.79,136.44,97.13,134.12,100,134.12z"/>
<path style="opacity:0.6;fill:#FFFFFF;enable-background:new    ;" d="M117.06,129.54c2.49-1.43,5.67-0.58,7.11,1.9l11.07,19.17c1.32,2.55,0.33,5.7-2.23,7.02
	c-2.39,1.24-5.33,0.45-6.78-1.81l-11.07-19.17C113.72,134.16,114.57,130.98,117.06,129.54
	C117.06,129.54,117.06,129.54,117.06,129.54L117.06,129.54z"/>
<path style="opacity:0.55;fill:#FFFFFF;enable-background:new    ;" d="M129.54,117.06c1.44-2.49,4.62-3.34,7.1-1.9c0,0,0,0,0,0l19.17,11.07c2.49,1.44,3.34,4.62,1.9,7.11
	c-1.44,2.49-4.62,3.34-7.11,1.9l0,0l-19.17-11.07C128.96,122.73,128.11,119.55,129.54,117.06L129.54,117.06z"/>
<path style="opacity:0.5;fill:#FFFFFF;enable-background:new    ;" d="M134.12,100c0-2.88,2.33-5.21,5.21-5.21h22.13c2.88,0,5.21,2.33,5.21,5.21c0,2.88-2.33,5.21-5.21,5.21h-22.13
	C136.45,105.21,134.12,102.88,134.12,100C134.12,100,134.12,100,134.12,100z"/>
<path style="opacity:0.4;fill:#FFFFFF;enable-background:new    ;" d="M129.54,82.94c-1.43-2.49-0.58-5.67,1.9-7.11l19.17-11.07c2.55-1.32,5.7-0.33,7.02,2.23
	c1.24,2.39,0.45,5.33-1.81,6.78l-19.17,11.07C134.16,86.28,130.98,85.43,129.54,82.94C129.54,82.94,129.54,82.94,129.54,82.94
	L129.54,82.94z"/>
<path style="opacity:0.3;fill:#FFFFFF;enable-background:new    ;" d="M117.06,70.46c-2.49-1.44-3.34-4.62-1.9-7.1c0,0,0,0,0,0l11.07-19.17c1.44-2.49,4.62-3.34,7.11-1.9
	c2.49,1.44,3.34,4.62,1.9,7.11l0,0l-11.07,19.17C122.73,71.04,119.55,71.89,117.06,70.46z"/>
</svg>
