<?xml version="1.0" encoding="utf-8"?>
<!-- Generator: Adobe Illustrator 23.0.0, SVG Export Plug-In . SVG Version: 6.00 Build 0)  -->
<!DOCTYPE svg PUBLIC "-//W3C//DTD SVG 1.1//EN" "http://www.w3.org/Graphics/SVG/1.1/DTD/svg11.dtd" [
	<!ENTITY ns_extend "http://ns.adobe.com/Extensibility/1.0/">
	<!ENTITY ns_ai "http://ns.adobe.com/AdobeIllustrator/10.0/">
	<!ENTITY ns_graphs "http://ns.adobe.com/Graphs/1.0/">
	<!ENTITY ns_vars "http://ns.adobe.com/Variables/1.0/">
	<!ENTITY ns_imrep "http://ns.adobe.com/ImageReplacement/1.0/">
	<!ENTITY ns_sfw "http://ns.adobe.com/SaveForWeb/1.0/">
	<!ENTITY ns_custom "http://ns.adobe.com/GenericCustomNamespace/1.0/">
	<!ENTITY ns_adobe_xpath "http://ns.adobe.com/XPath/1.0/">
	<!ENTITY st0 "fill:#01D2D6;">
	<!ENTITY st1 "fill:#FFFFFF;">
]>
<svg version="1.1" id="图层_1" xmlns:x="&ns_extend;" xmlns:i="&ns_ai;" xmlns:graph="&ns_graphs;"
	 xmlns="http://www.w3.org/2000/svg" xmlns:xlink="http://www.w3.org/1999/xlink" x="0px" y="0px" viewBox="0 0 200.98 200"
	 style="enable-background:new 0 0 200.98 200;" xml:space="preserve">
<metadata>
	<sfw  xmlns="&ns_sfw;">
		<slices></slices>
		<sliceSourceBounds  bottomLeftOrigin="true" height="199.99" width="199.99" x="0.96" y="0.01"></sliceSourceBounds>
	</sfw>
</metadata>
<path style="fill:#01D2D6;" d="M200.95,100c0,55.23-44.77,100-99.99,100c-55.23,0-100-44.77-100-100c0-55.23,44.77-100,100-100
	C156.18,0,200.95,44.77,200.95,100"/>
<path style="fill:#FFFFFF;" d="M150.66,37.91c0,0-6.03-10-19.44-7.38c0,0-13.76,2.27-20.22,14.69c0,0-9.54,17.42-11.46,32.53l-29.97-4.08
	l-1.35,8.16l29.44,4.9l-3.17,15.61L66.52,98l-1.42,7.95l27.24,4.61c0,0-5.25,26.6-6.95,30.86c0,0-5.82,21.64-14.69,24.05
	c0,0-5.11,1.14-6.67-3.19c0,0-3.62-8.73-9.22-7.52c0,0-4.4,1.35-3.48,7.66c0,0,2.62,7.02,12.84,7.31c0,0,9.93,1.63,18.23-5.04
	c0,0,10.29-6.46,16.1-25.75c0,0,6.35-23.84,7.09-26.5l28.2,3.94l1.7-8.19l-28.52-4.79l2.77-15.43l27.99,4.26l1.6-8.41l-27.24-4.58
	c0,0,6.7-32.24,12.52-38.49c0,0,3.12-4.86,7.17-5.25c0,0,4.54-0.53,6.07,2.66c0,0,2.62,7.87,9.9,7.27
	C147.75,45.43,152.71,44.76,150.66,37.91z"/>
</svg>
