<?xml version="1.0" encoding="utf-8"?>
<!-- Generator: Adobe Illustrator 23.0.0, SVG Export Plug-In . SVG Version: 6.00 Build 0)  -->
<!DOCTYPE svg PUBLIC "-//W3C//DTD SVG 1.1//EN" "http://www.w3.org/Graphics/SVG/1.1/DTD/svg11.dtd" [
	<!ENTITY ns_extend "http://ns.adobe.com/Extensibility/1.0/">
	<!ENTITY ns_ai "http://ns.adobe.com/AdobeIllustrator/10.0/">
	<!ENTITY ns_graphs "http://ns.adobe.com/Graphs/1.0/">
	<!ENTITY ns_vars "http://ns.adobe.com/Variables/1.0/">
	<!ENTITY ns_imrep "http://ns.adobe.com/ImageReplacement/1.0/">
	<!ENTITY ns_sfw "http://ns.adobe.com/SaveForWeb/1.0/">
	<!ENTITY ns_custom "http://ns.adobe.com/GenericCustomNamespace/1.0/">
	<!ENTITY ns_adobe_xpath "http://ns.adobe.com/XPath/1.0/">
	<!ENTITY st0 "fill:#3E75C5;">
	<!ENTITY st1 "fill-rule:evenodd;clip-rule:evenodd;fill:#FFFFFF;">
	<!ENTITY st2 "fill:#FFFFFF;">
]>
<svg version="1.1" id="图层_1" xmlns:x="&ns_extend;" xmlns:i="&ns_ai;" xmlns:graph="&ns_graphs;"
	 xmlns="http://www.w3.org/2000/svg" xmlns:xlink="http://www.w3.org/1999/xlink" x="0px" y="0px" viewBox="0 0 200.98 200"
	 style="enable-background:new 0 0 200.98 200;" xml:space="preserve">
<metadata>
	<sfw  xmlns="&ns_sfw;">
		<slices></slices>
		<sliceSourceBounds  bottomLeftOrigin="true" height="199.99" width="199.99" x="0.96" y="0.01"></sliceSourceBounds>
	</sfw>
</metadata>
<path style="fill:#3E75C5;" d="M200.95,100c0,55.23-44.77,100-99.99,100c-55.23,0-100-44.77-100-100c0-55.23,44.77-100,100-100
	C156.18,0,200.95,44.77,200.95,100"/>
<g id="椭圆_1">
	<g>
		<path style="fill-rule:evenodd;clip-rule:evenodd;fill:#FFFFFF;" d="M123.67,23.36c-6.51,6.15-3.96,12.59-2.79,14.77c26.34,8.23,45.46,32.82,45.46,61.88
			c0,29.22-19.34,53.92-45.91,62.01c-1.16,2.7-2.44,8.19,2.8,13.53c32.81-9.78,56.74-40.17,56.74-76.16
			C179.96,63.57,156.25,33.28,123.67,23.36z M79.23,39.13v-0.22c7.92-5.92,1.65-16.51,1.65-16.51c0.04-0.02,0.09-0.04,0.13-0.06
			c-34.48,8.69-60,39.89-60,77.06c0,37.22,25.59,68.45,60.12,77.09c1.03-2.01,4.55-9.94-0.8-15.21
			c-25.39-8.78-43.64-32.88-43.64-61.26C36.7,72.05,54.41,48.22,79.23,39.13z"/>
	</g>
</g>
<g id="形状_1">
	<g>
		<path style="fill:#FFFFFF;" d="M113.36,94.12c0,0-10.09-1.85-13.62-2.06c0,0-13.62-1.28-12.8-11.97c0,0,0.2-8.5,12.39-9.08
			c0,0,13.63-1.88,15.69,11.15h14.04c0,0-1.43-18.8-19.82-21.47V51.6c0,0-0.03-4.93-4.13-4.95c0,0-10.32-1.96-10.73,5.37v8.67
			c0,0-19.19,0.83-21.47,18.99c0,0-2.51,22.65,26.01,25.18c0,0,16.79,0.86,17.34,10.73c0,0,0.97,12.28-14.04,12.39
			c0,0-14.54,0.69-17.34-12.8h-12.8c0,0,0.63,23.64,29.73,24.36c0,0,26.96-0.63,28.49-21.88
			C130.29,117.66,132.25,98.88,113.36,94.12z"/>
	</g>
</g>
<g id="形状_2">
	<g>
		<path style="&st2;" d="M95.2,138.3v9.08c0,0,0.29,4.99,6.19,4.95c0,0,6.26,0.15,6.61-4.95v-9.5L95.2,138.3z"/>
	</g>
</g>
</svg>
