<?xml version="1.0" encoding="utf-8"?>
<!-- Generator: Adobe Illustrator 23.0.0, SVG Export Plug-In . SVG Version: 6.00 Build 0)  -->
<!DOCTYPE svg PUBLIC "-//W3C//DTD SVG 1.1//EN" "http://www.w3.org/Graphics/SVG/1.1/DTD/svg11.dtd" [
	<!ENTITY ns_extend "http://ns.adobe.com/Extensibility/1.0/">
	<!ENTITY ns_ai "http://ns.adobe.com/AdobeIllustrator/10.0/">
	<!ENTITY ns_graphs "http://ns.adobe.com/Graphs/1.0/">
	<!ENTITY ns_vars "http://ns.adobe.com/Variables/1.0/">
	<!ENTITY ns_imrep "http://ns.adobe.com/ImageReplacement/1.0/">
	<!ENTITY ns_sfw "http://ns.adobe.com/SaveForWeb/1.0/">
	<!ENTITY ns_custom "http://ns.adobe.com/GenericCustomNamespace/1.0/">
	<!ENTITY ns_adobe_xpath "http://ns.adobe.com/XPath/1.0/">
	<!ENTITY st0 "fill:#FFFFFF;">
]>
<svg version="1.1" id="图层_1" xmlns:x="&ns_extend;" xmlns:i="&ns_ai;" xmlns:graph="&ns_graphs;"
	 xmlns="http://www.w3.org/2000/svg" xmlns:xlink="http://www.w3.org/1999/xlink" x="0px" y="0px" viewBox="0 0 200 200"
	 style="enable-background:new 0 0 200 200;" xml:space="preserve">
<metadata>
	<sfw  xmlns="&ns_sfw;">
		<slices></slices>
		<sliceSourceBounds  bottomLeftOrigin="true" height="187.06" width="187.06" x="6.47" y="6.47"></sliceSourceBounds>
	</sfw>
</metadata>
<circle style="fill:#FFFFFF;" cx="100" cy="100" r="93.53"/>
<path d="M77.02,152.53c-4.66,2.9-10.76,1.4-13.59-3.32c-1.34-2.24-1.76-4.91-1.16-7.46l6.04-25.74c0.15-0.61-0.05-1.25-0.52-1.67
	L48.03,97.14c-4.1-3.57-4.58-9.82-1.07-13.99c1.69-2.01,4.1-3.26,6.72-3.47l25.93-2.11c0.57-0.05,1.07-0.42,1.3-0.99l9.99-24.43
	c2.08-5.09,7.87-7.52,12.92-5.38c2.41,1.02,4.31,2.96,5.3,5.38l9.99,24.43c0.23,0.57,0.74,0.94,1.3,0.99l25.93,2.11
	c5.44,0.44,9.46,5.25,9.03,10.71c-0.2,2.61-1.42,5.03-3.39,6.75l-19.75,17.21c-0.46,0.4-0.67,1.05-0.52,1.67l6.04,25.74
	c1.25,5.32-1.99,10.69-7.29,11.97c-2.55,0.62-5.24,0.19-7.47-1.2l-22.2-13.79c-0.48-0.3-1.08-0.3-1.56,0L77.02,152.53L77.02,152.53z
	"/>
</svg>
