<?xml version="1.0" encoding="utf-8"?>
<!-- Generator: Adobe Illustrator 23.0.0, SVG Export Plug-In . SVG Version: 6.00 Build 0)  -->
<!DOCTYPE svg PUBLIC "-//W3C//DTD SVG 1.1//EN" "http://www.w3.org/Graphics/SVG/1.1/DTD/svg11.dtd" [
	<!ENTITY ns_extend "http://ns.adobe.com/Extensibility/1.0/">
	<!ENTITY ns_ai "http://ns.adobe.com/AdobeIllustrator/10.0/">
	<!ENTITY ns_graphs "http://ns.adobe.com/Graphs/1.0/">
	<!ENTITY ns_vars "http://ns.adobe.com/Variables/1.0/">
	<!ENTITY ns_imrep "http://ns.adobe.com/ImageReplacement/1.0/">
	<!ENTITY ns_sfw "http://ns.adobe.com/SaveForWeb/1.0/">
	<!ENTITY ns_custom "http://ns.adobe.com/GenericCustomNamespace/1.0/">
	<!ENTITY ns_adobe_xpath "http://ns.adobe.com/XPath/1.0/">
	<!ENTITY st0 "fill:#8B5E28;">
]>
<svg version="1.1" id="图层_1" xmlns:x="&ns_extend;" xmlns:i="&ns_ai;" xmlns:graph="&ns_graphs;"
	 xmlns="http://www.w3.org/2000/svg" xmlns:xlink="http://www.w3.org/1999/xlink" x="0px" y="0px" viewBox="0 0 200 200"
	 style="enable-background:new 0 0 200 200;" xml:space="preserve">
<metadata>
	<sfw  xmlns="&ns_sfw;">
		<slices></slices>
		<sliceSourceBounds  bottomLeftOrigin="true" height="164.4" width="177.53" x="11.23" y="17.8"></sliceSourceBounds>
	</sfw>
</metadata>
<path style="&st0;" d="M187.97,63.15c-11.58-20.73-30.23-36.7-52.51-44.95c-3.26-1.21-6.9,0.47-8.11,3.73
	c-1.21,3.28,0.47,6.9,3.73,8.11c19.47,7.19,35.75,21.15,45.86,39.27c1.16,2.06,3.29,3.24,5.51,3.24c1.04,0,2.1-0.26,3.07-0.8
	C188.57,70.05,189.66,66.2,187.97,63.15z M68.93,30.04c3.28-1.21,4.94-4.84,3.73-8.11s-4.85-4.94-8.11-3.73
	c-22.28,8.25-40.93,24.22-52.51,44.95c-1.7,3.05-0.61,6.88,2.44,8.58c0.97,0.54,2.03,0.8,3.07,0.8c2.22,0,4.37-1.16,5.51-3.24
	C33.19,51.19,49.46,37.25,68.93,30.04z M100.03,85.7c-3.48,0-6.31,2.83-6.31,6.31v22.03c0,3.48,2.83,6.31,6.31,6.31h22.03
	c3.48,0,6.31-2.83,6.31-6.31c0-3.48-2.83-6.31-6.31-6.31h-15.72V92.02C106.35,88.53,103.52,85.7,100.03,85.7L100.03,85.7z"/>
<path style="&st0;" d="M62.67,53.1c-2.93,1.89-3.78,5.79-1.89,8.72c1.89,2.93,5.79,3.78,8.72,1.89
	c26.66-17.15,62.29-9.4,79.44,17.27c8.3,12.92,11.08,28.28,7.82,43.29c-2.6,11.98-8.81,22.57-17.77,30.58
	c-0.36,0.24-0.71,0.52-1.02,0.83c-0.1,0.1-0.19,0.21-0.28,0.31c-1.89,1.59-3.88,3.07-6,4.42c-12.92,8.3-28.28,11.08-43.29,7.82
	c-15-3.26-27.84-12.17-36.15-25.09c-12.76-19.85-12.19-45.11,1.47-64.35c2.01-2.84,1.35-6.78-1.49-8.81
	c-2.84-2.01-6.78-1.35-8.81,1.49c-16.66,23.47-17.35,54.28-1.8,78.5c2.24,3.48,4.75,6.73,7.51,9.73l-11.01,11.01
	c-2.46,2.46-2.46,6.47,0,8.93c1.23,1.23,2.84,1.85,4.46,1.85c1.61,0,3.22-0.62,4.47-1.85l11.44-11.46
	c7.96,5.98,17.18,10.21,27.2,12.4c4.99,1.09,10.02,1.63,15.03,1.63c13.3,0,26.33-3.8,37.78-11.16c1.2-0.76,2.36-1.56,3.48-2.39
	l10.99,10.99c1.23,1.23,2.84,1.86,4.46,1.86s3.22-0.62,4.46-1.86c2.46-2.46,2.46-6.47,0-8.93l-10.4-10.4
	c8.74-9.19,14.82-20.63,17.6-33.34c3.97-18.29,0.59-37.05-9.54-52.79C138.66,41.62,95.2,32.19,62.67,53.1z"/>
</svg>
