<?xml version="1.0" encoding="utf-8"?>
<!-- Generator: Adobe Illustrator 23.0.0, SVG Export Plug-In . SVG Version: 6.00 Build 0)  -->
<!DOCTYPE svg PUBLIC "-//W3C//DTD SVG 1.1//EN" "http://www.w3.org/Graphics/SVG/1.1/DTD/svg11.dtd" [
	<!ENTITY ns_extend "http://ns.adobe.com/Extensibility/1.0/">
	<!ENTITY ns_ai "http://ns.adobe.com/AdobeIllustrator/10.0/">
	<!ENTITY ns_graphs "http://ns.adobe.com/Graphs/1.0/">
	<!ENTITY ns_vars "http://ns.adobe.com/Variables/1.0/">
	<!ENTITY ns_imrep "http://ns.adobe.com/ImageReplacement/1.0/">
	<!ENTITY ns_sfw "http://ns.adobe.com/SaveForWeb/1.0/">
	<!ENTITY ns_custom "http://ns.adobe.com/GenericCustomNamespace/1.0/">
	<!ENTITY ns_adobe_xpath "http://ns.adobe.com/XPath/1.0/">
	<!ENTITY st0 "fill:#7D5321;">
]>
<svg version="1.1" id="图层_1" xmlns:x="&ns_extend;" xmlns:i="&ns_ai;" xmlns:graph="&ns_graphs;"
	 xmlns="http://www.w3.org/2000/svg" xmlns:xlink="http://www.w3.org/1999/xlink" x="0px" y="0px" viewBox="0 0 200 200"
	 style="enable-background:new 0 0 200 200;" xml:space="preserve">
<metadata>
	<sfw  xmlns="&ns_sfw;">
		<slices></slices>
		<sliceSourceBounds  bottomLeftOrigin="true" height="200" width="200" x="0" y="0"></sliceSourceBounds>
	</sfw>
</metadata>
<path style="fill:#7D5321;" d="M132.57,142.86c5.6,0.08,10.21-4.4,10.28-10c0-0.05,0-0.1,0-0.14V10.14c0-5.6-4.54-10.14-10.14-10.14
	c-0.05,0-0.1,0-0.14,0H10.14C4.54,0,0,4.54,0,10.14v122.57c0,5.6,4.54,10.14,10.14,10.14H132.57z"/>
<path style="fill:#7D5321;" d="M189.71,57.14h-32.57v88.71c0,6.23-5.05,11.29-11.29,11.29l0,0H57.14v32.71c0,5.6,4.54,10.14,10.14,10.14
	c0.05,0,0.1,0,0.14,0h122.43c5.6,0,10.14-4.54,10.14-10.14V67.29c0-5.6-4.54-10.14-10.14-10.14
	C189.81,57.14,189.76,57.14,189.71,57.14L189.71,57.14z"/>
</svg>
