<?xml version="1.0" encoding="utf-8"?>
<!-- Generator: Adobe Illustrator 23.0.0, SVG Export Plug-In . SVG Version: 6.00 Build 0)  -->
<!DOCTYPE svg PUBLIC "-//W3C//DTD SVG 1.1//EN" "http://www.w3.org/Graphics/SVG/1.1/DTD/svg11.dtd" [
	<!ENTITY ns_extend "http://ns.adobe.com/Extensibility/1.0/">
	<!ENTITY ns_ai "http://ns.adobe.com/AdobeIllustrator/10.0/">
	<!ENTITY ns_graphs "http://ns.adobe.com/Graphs/1.0/">
	<!ENTITY ns_vars "http://ns.adobe.com/Variables/1.0/">
	<!ENTITY ns_imrep "http://ns.adobe.com/ImageReplacement/1.0/">
	<!ENTITY ns_sfw "http://ns.adobe.com/SaveForWeb/1.0/">
	<!ENTITY ns_custom "http://ns.adobe.com/GenericCustomNamespace/1.0/">
	<!ENTITY ns_adobe_xpath "http://ns.adobe.com/XPath/1.0/">
	<!ENTITY st0 "fill:#FFFFFF;">
]>
<svg version="1.1" id="图层_1" xmlns:x="&ns_extend;" xmlns:i="&ns_ai;" xmlns:graph="&ns_graphs;"
	 xmlns="http://www.w3.org/2000/svg" xmlns:xlink="http://www.w3.org/1999/xlink" x="0px" y="0px" viewBox="0 0 200 200"
	 style="enable-background:new 0 0 200 200;" xml:space="preserve">
<metadata>
	<sfw  xmlns="&ns_sfw;">
		<slices></slices>
		<sliceSourceBounds  bottomLeftOrigin="true" height="187.06" width="187.06" x="6.47" y="6.47"></sliceSourceBounds>
	</sfw>
</metadata>
<circle style="&st0;" cx="100" cy="100" r="93.53"/>
<path d="M138.55,111.35c-13.59,0-24.6,11.01-24.6,24.6s11.01,24.6,24.6,24.6s24.6-11.01,24.6-24.6l0,0
	C163.16,122.36,152.14,111.35,138.55,111.35z M135.11,142.1c-5.71,0.03-10.36-4.56-10.39-10.27c-0.03-5.71,4.56-10.36,10.27-10.39
	c5.71-0.03,10.36,4.56,10.39,10.27c0.1,5.71-4.44,10.41-10.15,10.52c-0.04,0-0.08,0-0.12,0V142.1z M153.13,149.79
	c-0.58,0.55-1.35,0.85-2.15,0.86c-0.82,0-1.61-0.31-2.21-0.86l-5.9-5.78c-1.17-1.2-1.17-3.11,0-4.31c1.2-1.21,3.14-1.21,4.35-0.02
	c0.01,0.01,0.01,0.01,0.02,0.02l5.72,5.72c1.26,1.14,1.35,3.09,0.21,4.34C153.14,149.77,153.14,149.78,153.13,149.79L153.13,149.79z
	"/>
<path d="M61.86,144.01c-3.87,0.07-7.07-3.02-7.13-6.89c0-0.02,0-0.04,0-0.06c0.09-3.88,3.14-7.03,7.01-7.26h46.93
	c3.25-13.89,15.63-23.72,29.89-23.74c0.93,0.04,1.85,0.14,2.77,0.31v-49.2c-0.07-9.8-8.03-17.71-17.84-17.71H67.02v68.27
	c0,1.7-1.38,3.08-3.08,3.08c-1.7,0-3.08-1.38-3.08-3.08V40.25c-7.3,2.2-12.3,8.92-12.3,16.54v77.56c-0.1,8.63,6.81,15.7,15.44,15.81
	c0.06,0,0.12,0,0.19,0h46.62c-0.95-1.96-1.67-4.03-2.15-6.15H61.86z M84,53.96h41.45c1.6-0.03,2.92,1.23,2.95,2.83
	c0,0.04,0,0.08,0,0.12c0,1.63-1.32,2.95-2.95,2.95c0,0,0,0,0,0H84c-1.63,0-2.95-1.32-2.95-2.95l0,0c-0.03-1.6,1.23-2.92,2.83-2.95
	C83.92,53.96,83.96,53.96,84,53.96z M84,65.59h36.9c1.7,0,3.08,1.38,3.08,3.08s-1.38,3.08-3.08,3.08H84c-1.7,0-3.08-1.38-3.08-3.08
	S82.3,65.59,84,65.59C84,65.59,84,65.59,84,65.59z M84,77.21h21.53c1.63,0,2.95,1.32,2.95,2.95l0,0c0.03,1.6-1.23,2.92-2.83,2.95
	c-0.04,0-0.08,0-0.12,0H84c-1.6,0.03-2.92-1.23-2.95-2.83c0-0.04,0-0.08,0-0.12C81.05,78.53,82.37,77.21,84,77.21L84,77.21z"/>
</svg>
