<?xml version="1.0" encoding="utf-8"?>
<!-- Generator: Adobe Illustrator 23.0.0, SVG Export Plug-In . SVG Version: 6.00 Build 0)  -->
<!DOCTYPE svg PUBLIC "-//W3C//DTD SVG 1.1//EN" "http://www.w3.org/Graphics/SVG/1.1/DTD/svg11.dtd" [
	<!ENTITY ns_extend "http://ns.adobe.com/Extensibility/1.0/">
	<!ENTITY ns_ai "http://ns.adobe.com/AdobeIllustrator/10.0/">
	<!ENTITY ns_graphs "http://ns.adobe.com/Graphs/1.0/">
	<!ENTITY ns_vars "http://ns.adobe.com/Variables/1.0/">
	<!ENTITY ns_imrep "http://ns.adobe.com/ImageReplacement/1.0/">
	<!ENTITY ns_sfw "http://ns.adobe.com/SaveForWeb/1.0/">
	<!ENTITY ns_custom "http://ns.adobe.com/GenericCustomNamespace/1.0/">
	<!ENTITY ns_adobe_xpath "http://ns.adobe.com/XPath/1.0/">
]>
<svg version="1.1" id="图层_1" xmlns:x="&ns_extend;" xmlns:i="&ns_ai;" xmlns:graph="&ns_graphs;"
	 xmlns="http://www.w3.org/2000/svg" xmlns:xlink="http://www.w3.org/1999/xlink" x="0px" y="0px" viewBox="0 0 200 200"
	 style="enable-background:new 0 0 200 200;" xml:space="preserve">
<metadata>
	<sfw  xmlns="&ns_sfw;">
		<slices></slices>
		<sliceSourceBounds  bottomLeftOrigin="true" height="155.05" width="126" x="37" y="22.47"></sliceSourceBounds>
	</sfw>
</metadata>
<path d="M148.43,22.47h-96.9C43.51,22.47,37,28.98,37,37.01v126.35c0,0.24,0.02,0.5,0.05,0.74c0.02,0.12,0.02,0.24,0.03,0.38
	c0.7,6.81,6.16,12.26,12.98,12.98c0.12,0.02,0.24,0.03,0.38,0.03c0.24,0.02,0.5,0.03,0.74,0.05h97.66c0.24,0,0.5-0.02,0.74-0.05
	c0.12-0.02,0.24-0.02,0.38-0.03c6.81-0.7,12.26-6.16,12.98-12.98c0.02-0.12,0.03-0.24,0.03-0.38c0.02-0.24,0.03-0.5,0.05-0.74V37.01
	C162.97,28.98,156.46,22.47,148.43,22.47z M61.22,49.12c0-1.33,1.09-2.42,2.42-2.42h72.67c1.33,0,2.42,1.09,2.42,2.42v24.22
	c0,1.33-1.09,2.42-2.42,2.42H63.65c-1.33,0-2.42-1.09-2.42-2.42V49.12z M61.22,86.67c0-0.67,0.55-1.21,1.21-1.21h75.1
	c0.67,0,1.21,0.55,1.21,1.21v7.27c0,0.67-0.55,1.21-1.21,1.21h-75.1c-0.67,0-1.21-0.55-1.21-1.21
	C61.22,93.94,61.22,86.67,61.22,86.67z M61.22,106.05c0-0.67,0.55-1.21,1.21-1.21h75.1c0.67,0,1.21,0.55,1.21,1.21v7.27
	c0,0.67-0.55,1.21-1.21,1.21h-75.1c-0.67,0-1.21-0.55-1.21-1.21C61.22,113.32,61.22,106.05,61.22,106.05z M153.28,163.14v0.15
	c0,0.05,0,0.08-0.02,0.12c-0.02,0.12-0.03,0.23-0.05,0.35c0,0.05-0.02,0.09-0.03,0.14c0,0.05-0.02,0.09-0.03,0.14
	c-0.41,1.83-1.85,3.27-3.68,3.68c-0.05,0.02-0.09,0.02-0.14,0.03s-0.09,0.02-0.14,0.02c-0.11,0.02-0.23,0.03-0.35,0.05
	c-0.05,0-0.08,0-0.12,0.02H51.22c-0.05,0-0.08,0-0.12-0.02c-0.12-0.02-0.23-0.03-0.35-0.05c-0.05,0-0.09-0.02-0.14-0.02
	s-0.09-0.02-0.14-0.03c-1.83-0.41-3.27-1.85-3.68-3.68c-0.02-0.05-0.02-0.09-0.03-0.14s-0.02-0.09-0.03-0.14
	c-0.02-0.11-0.03-0.23-0.05-0.35c0-0.05,0-0.08-0.02-0.12v-0.15v-4.41c0-0.33,0.27-0.61,0.61-0.61h101.14
	c2.68,0,4.84,2.17,4.84,4.84C153.28,163.04,153.28,163.08,153.28,163.14z"/>
</svg>
