<?xml version="1.0" encoding="utf-8"?>
<!-- Generator: Adobe Illustrator 23.0.0, SVG Export Plug-In . SVG Version: 6.00 Build 0)  -->
<!DOCTYPE svg PUBLIC "-//W3C//DTD SVG 1.1//EN" "http://www.w3.org/Graphics/SVG/1.1/DTD/svg11.dtd" [
	<!ENTITY ns_extend "http://ns.adobe.com/Extensibility/1.0/">
	<!ENTITY ns_ai "http://ns.adobe.com/AdobeIllustrator/10.0/">
	<!ENTITY ns_graphs "http://ns.adobe.com/Graphs/1.0/">
	<!ENTITY ns_vars "http://ns.adobe.com/Variables/1.0/">
	<!ENTITY ns_imrep "http://ns.adobe.com/ImageReplacement/1.0/">
	<!ENTITY ns_sfw "http://ns.adobe.com/SaveForWeb/1.0/">
	<!ENTITY ns_custom "http://ns.adobe.com/GenericCustomNamespace/1.0/">
	<!ENTITY ns_adobe_xpath "http://ns.adobe.com/XPath/1.0/">
	<!ENTITY st0 "fill:#F82828;">
]>
<svg version="1.1" id="图层_1" xmlns:x="&ns_extend;" xmlns:i="&ns_ai;" xmlns:graph="&ns_graphs;"
	 xmlns="http://www.w3.org/2000/svg" xmlns:xlink="http://www.w3.org/1999/xlink" x="0px" y="0px" viewBox="0 0 200 200"
	 style="enable-background:new 0 0 200 200;" xml:space="preserve">
<metadata>
	<sfw  xmlns="&ns_sfw;">
		<slices></slices>
		<sliceSourceBounds  bottomLeftOrigin="true" height="157.82" width="167.88" x="15.94" y="21.09"></sliceSourceBounds>
	</sfw>
</metadata>
<path style="fill:#F82828;" d="M176.34,43.32H23.24c-4.03,0-7.29,3.27-7.29,7.29s3.27,7.29,7.29,7.29h16.91v89.58
	c0.01,17.33,14.05,31.38,31.38,31.41h56.52c17.33-0.03,31.38-14.08,31.39-31.41v-89.6h16.91c4.02,0.1,7.37-3.07,7.48-7.1
	c0.1-4.02-3.07-7.37-7.1-7.48C176.59,43.31,176.47,43.31,176.34,43.32L176.34,43.32z M90.57,132.77c0,4.03-3.26,7.29-7.29,7.29
	s-7.29-3.26-7.29-7.29V86.96c0-4.03,3.26-7.29,7.29-7.29s7.29,3.26,7.29,7.29l0,0V132.77z M123.56,132.77
	c0,4.03-3.26,7.29-7.28,7.29c-4.03,0-7.29-3.26-7.29-7.28c0,0,0-0.01,0-0.01V86.96c0-4.03,3.26-7.29,7.28-7.29
	c4.03,0,7.29,3.26,7.29,7.28c0,0,0,0.01,0,0.01V132.77z M71.87,35.68h55.83c4.03-0.1,7.21-3.46,7.11-7.49
	c-0.1-3.88-3.22-7.01-7.11-7.11H71.87c-4.03,0.1-7.21,3.46-7.11,7.49C64.87,32.46,67.99,35.58,71.87,35.68z"/>
</svg>
