<?xml version="1.0" encoding="utf-8"?>
<!-- Generator: Adobe Illustrator 23.0.0, SVG Export Plug-In . SVG Version: 6.00 Build 0)  -->
<!DOCTYPE svg PUBLIC "-//W3C//DTD SVG 1.1//EN" "http://www.w3.org/Graphics/SVG/1.1/DTD/svg11.dtd" [
	<!ENTITY ns_extend "http://ns.adobe.com/Extensibility/1.0/">
	<!ENTITY ns_ai "http://ns.adobe.com/AdobeIllustrator/10.0/">
	<!ENTITY ns_graphs "http://ns.adobe.com/Graphs/1.0/">
	<!ENTITY ns_vars "http://ns.adobe.com/Variables/1.0/">
	<!ENTITY ns_imrep "http://ns.adobe.com/ImageReplacement/1.0/">
	<!ENTITY ns_sfw "http://ns.adobe.com/SaveForWeb/1.0/">
	<!ENTITY ns_custom "http://ns.adobe.com/GenericCustomNamespace/1.0/">
	<!ENTITY ns_adobe_xpath "http://ns.adobe.com/XPath/1.0/">
	<!ENTITY st0 "fill:#666666;">
]>
<svg version="1.1" id="图层_1" xmlns:x="&ns_extend;" xmlns:i="&ns_ai;" xmlns:graph="&ns_graphs;"
	 xmlns="http://www.w3.org/2000/svg" xmlns:xlink="http://www.w3.org/1999/xlink" x="0px" y="0px" viewBox="0 0 200 200"
	 style="enable-background:new 0 0 200 200;" xml:space="preserve">
<metadata>
	<sfw  xmlns="&ns_sfw;">
		<slices></slices>
		<sliceSourceBounds  bottomLeftOrigin="true" height="199.65" width="199.67" x="0.28" y="0"></sliceSourceBounds>
	</sfw>
</metadata>
<path style="&st0;" d="M196.91,181.89l-34.68-34.68c31.01-39.34,24.26-96.38-15.09-127.39S50.76-4.44,19.75,34.9
	S-4.5,131.28,34.84,162.29c25.52,20.11,59.85,25.04,89.99,12.92c5.76-2.32,8.54-8.87,6.21-14.63c-2.32-5.76-8.87-8.54-14.63-6.21
	c-35.06,14.23-75.01-2.66-89.24-37.71s2.66-75.01,37.71-89.24s75.01,2.66,89.24,37.71c10.28,25.32,4.52,54.33-14.65,73.81
	c-0.06,0.06-0.11,0.13-0.16,0.2c-0.05,0.04-0.11,0.09-0.16,0.12c-3.64,3.67-4.11,9.43-1.11,13.65c0.44,0.7,0.95,1.34,1.53,1.93
	c0.2,0.19,0.43,0.34,0.65,0.52l41.55,41.55c4.16,4.12,10.86,4.12,15.02,0C200.95,192.78,201,186.07,196.91,181.89L196.91,181.89z"/>
</svg>
