<?xml version="1.0" encoding="utf-8"?>
<!-- Generator: Adobe Illustrator 23.0.0, SVG Export Plug-In . SVG Version: 6.00 Build 0)  -->
<!DOCTYPE svg PUBLIC "-//W3C//DTD SVG 1.1//EN" "http://www.w3.org/Graphics/SVG/1.1/DTD/svg11.dtd" [
	<!ENTITY ns_extend "http://ns.adobe.com/Extensibility/1.0/">
	<!ENTITY ns_ai "http://ns.adobe.com/AdobeIllustrator/10.0/">
	<!ENTITY ns_graphs "http://ns.adobe.com/Graphs/1.0/">
	<!ENTITY ns_vars "http://ns.adobe.com/Variables/1.0/">
	<!ENTITY ns_imrep "http://ns.adobe.com/ImageReplacement/1.0/">
	<!ENTITY ns_sfw "http://ns.adobe.com/SaveForWeb/1.0/">
	<!ENTITY ns_custom "http://ns.adobe.com/GenericCustomNamespace/1.0/">
	<!ENTITY ns_adobe_xpath "http://ns.adobe.com/XPath/1.0/">
	<!ENTITY st0 "fill:#D06969;">
]>
<svg version="1.1" id="图层_1" xmlns:x="&ns_extend;" xmlns:i="&ns_ai;" xmlns:graph="&ns_graphs;"
	 xmlns="http://www.w3.org/2000/svg" xmlns:xlink="http://www.w3.org/1999/xlink" x="0px" y="0px" viewBox="0 0 200 200"
	 style="enable-background:new 0 0 200 200;" xml:space="preserve">
<metadata>
	<sfw  xmlns="&ns_sfw;">
		<slices></slices>
		<sliceSourceBounds  bottomLeftOrigin="true" height="133.66" width="133.33" x="33.33" y="33.17"></sliceSourceBounds>
	</sfw>
</metadata>
<path style="&st0;" d="M80.89,51.41l48.45,11.61c3.3,0.79,5.33,4.1,4.53,7.38s-4.09,5.31-7.38,4.53L78.04,63.33
	c-3.3-0.78-5.33-4.09-4.53-7.38C74.3,52.65,77.59,50.62,80.89,51.41z"/>
<path style="&st0;" d="M121.42,97.84l-3.28,13.72c-2.1,8.79-10.92,14.19-19.69,12.08l-15.89-3.8c-8.77-2.1-14.19-10.92-12.08-19.69
	l10.08-42.1c2.1-8.77,10.92-14.19,19.69-12.08l15.89,3.8c8.77,2.1,14.19,10.92,12.08,19.69l-2.54,10.55
	c0.67,0.01,1.36,0.09,2.04,0.25l38.82,9.29c-3.33-37.59-25.46-56.39-66.38-56.39c-44.56,0-66.83,22.27-66.83,66.83
	s22.27,66.83,66.83,66.83c41.47,0,63.64-19.3,66.5-57.91l-43.32-10.38C122.67,98.37,122.03,98.14,121.42,97.84z M135.59,143.62
	c0,0.54-0.24,6.65-0.24,6.65l-72.96-0.01c0,0-0.03-0.1-0.03-0.37c0-2.03,0.03-4.07-0.01-6.3c-0.12-7.95,9.26-13.99,16.17-13.99
	h40.81C128.25,129.58,135.59,134.7,135.59,143.62z"/>
</svg>
