<?xml version="1.0" encoding="utf-8"?>
<!-- Generator: Adobe Illustrator 23.0.0, SVG Export Plug-In . SVG Version: 6.00 Build 0)  -->
<!DOCTYPE svg PUBLIC "-//W3C//DTD SVG 1.1//EN" "http://www.w3.org/Graphics/SVG/1.1/DTD/svg11.dtd" [
	<!ENTITY ns_extend "http://ns.adobe.com/Extensibility/1.0/">
	<!ENTITY ns_ai "http://ns.adobe.com/AdobeIllustrator/10.0/">
	<!ENTITY ns_graphs "http://ns.adobe.com/Graphs/1.0/">
	<!ENTITY ns_vars "http://ns.adobe.com/Variables/1.0/">
	<!ENTITY ns_imrep "http://ns.adobe.com/ImageReplacement/1.0/">
	<!ENTITY ns_sfw "http://ns.adobe.com/SaveForWeb/1.0/">
	<!ENTITY ns_custom "http://ns.adobe.com/GenericCustomNamespace/1.0/">
	<!ENTITY ns_adobe_xpath "http://ns.adobe.com/XPath/1.0/">
	<!ENTITY st0 "fill:#FFE1B4;">
]>
<svg version="1.1" id="图层_1" xmlns:x="&ns_extend;" xmlns:i="&ns_ai;" xmlns:graph="&ns_graphs;"
	 xmlns="http://www.w3.org/2000/svg" xmlns:xlink="http://www.w3.org/1999/xlink" x="0px" y="0px" viewBox="0 0 200 200"
	 style="enable-background:new 0 0 200 200;" xml:space="preserve">
<metadata>
	<sfw  xmlns="&ns_sfw;">
		<slices></slices>
		<sliceSourceBounds  bottomLeftOrigin="true" height="153.05" width="126.1" x="35.97" y="24.73"></sliceSourceBounds>
	</sfw>
</metadata>
<path style="&st0;" d="M40.8,75.3c1.02,1.5,2.2,2.95,3.52,4.35c5.08,5.38,12.25,9.93,20.83,13.28c2.93,1.15,6.03,2.13,9.28,3
	c5.78,1.47,12.03,2.45,18.53,2.82c1.97,0.13,4,0.18,6.05,0.18s4.08-0.05,6.05-0.18c6.5-0.38,12.75-1.35,18.53-2.82
	c3.25-0.85,6.35-1.85,9.28-3c8.57-3.32,15.73-7.9,20.82-13.28c1.32-1.38,2.5-2.85,3.52-4.35c1.08-1.57,2-3.2,2.73-4.88
	c1.38-3.13,2.13-6.42,2.13-9.85c0-21.17-28.22-38.35-63.02-38.35S36,39.4,36,60.57c0,3.4,0.73,6.7,2.13,9.85
	C38.8,72.1,39.73,73.72,40.8,75.3L40.8,75.3z M99,148.02c-25.55,0-47.68-8.22-60.9-20.97c-1.38,3.15-2.13,6.45-2.13,9.87
	c0,21.18,28.23,38.35,63.02,38.35s63.03-17.15,63.03-38.35c0-3.4-0.72-6.7-2.13-9.87C146.68,139.8,124.55,148.02,99,148.02
	L99,148.02z"/>
<path style="&st0;" d="M146.3,98.72c-1.93,1.05-3.95,2.05-6.05,2.97c-2.38,1.05-4.85,2-7.4,2.85c-10.1,3.4-21.58,5.3-33.85,5.3
	s-23.75-1.9-33.85-5.3c-2.55-0.85-5.02-1.78-7.4-2.85c-2.1-0.9-4.12-1.92-6.05-2.97c-5.2-2.85-9.8-6.15-13.63-9.88
	c-1.38,3.11-2.09,6.47-2.1,9.88c0,3.4,0.72,6.7,2.13,9.88c0.7,1.67,1.65,3.3,2.72,4.88c1.03,1.5,2.2,2.95,3.53,4.35
	c10.88,11.52,31.27,19.27,54.68,19.27s43.8-7.75,54.67-19.27c1.32-1.38,2.5-2.85,3.52-4.35c1.07-1.58,2-3.2,2.73-4.88
	c1.37-3.15,2.13-6.45,2.13-9.88c0-3.4-0.72-6.7-2.1-9.88C156.1,92.57,151.5,95.87,146.3,98.72L146.3,98.72z"/>
</svg>
