<?xml version="1.0" encoding="utf-8"?>
<!-- Generator: Adobe Illustrator 23.0.0, SVG Export Plug-In . SVG Version: 6.00 Build 0)  -->
<!DOCTYPE svg PUBLIC "-//W3C//DTD SVG 1.1//EN" "http://www.w3.org/Graphics/SVG/1.1/DTD/svg11.dtd" [
	<!ENTITY ns_extend "http://ns.adobe.com/Extensibility/1.0/">
	<!ENTITY ns_ai "http://ns.adobe.com/AdobeIllustrator/10.0/">
	<!ENTITY ns_graphs "http://ns.adobe.com/Graphs/1.0/">
	<!ENTITY ns_vars "http://ns.adobe.com/Variables/1.0/">
	<!ENTITY ns_imrep "http://ns.adobe.com/ImageReplacement/1.0/">
	<!ENTITY ns_sfw "http://ns.adobe.com/SaveForWeb/1.0/">
	<!ENTITY ns_custom "http://ns.adobe.com/GenericCustomNamespace/1.0/">
	<!ENTITY ns_adobe_xpath "http://ns.adobe.com/XPath/1.0/">
]>
<svg version="1.1" id="图层_1" xmlns:x="&ns_extend;" xmlns:i="&ns_ai;" xmlns:graph="&ns_graphs;"
	 xmlns="http://www.w3.org/2000/svg" xmlns:xlink="http://www.w3.org/1999/xlink" x="0px" y="0px" viewBox="0 0 200 200"
	 style="enable-background:new 0 0 200 200;" xml:space="preserve">
<metadata>
	<sfw  xmlns="&ns_sfw;">
		<slices></slices>
		<sliceSourceBounds  bottomLeftOrigin="true" height="160.55" width="137.62" x="31.19" y="19.72"></sliceSourceBounds>
	</sfw>
</metadata>
<path d="M138.81,167.04H38.25c-3.53,0-6.62,3.09-6.62,6.62c0,3.53,3.09,6.62,6.62,6.62h101.01c3.53,0,6.62-3.09,6.62-6.62
	C145.87,170.13,142.78,167.04,138.81,167.04z M48.39,156.46l27.79-1.32c5.29,0.44,10.14-1.76,13.67-5.29l52.93-52.93L91.62,45.75
	L38.69,98.68c-3.53,3.53-5.29,8.38-5.29,13.23l-2.21,26.02v0.88c0,4.85,2.21,9.26,5.29,12.35
	C39.57,154.25,43.54,156.02,48.39,156.46L48.39,156.46z M163.51,50.16l-25.14-25.14c-7.06-7.06-18.97-7.06-26.02,0l-11.47,11.47
	l51.16,51.16l11.47-11.47C170.57,68.68,170.57,57.22,163.51,50.16z"/>
</svg>
