<?xml version="1.0" encoding="utf-8"?>
<!-- Generator: Adobe Illustrator 23.0.0, SVG Export Plug-In . SVG Version: 6.00 Build 0)  -->
<!DOCTYPE svg PUBLIC "-//W3C//DTD SVG 1.1//EN" "http://www.w3.org/Graphics/SVG/1.1/DTD/svg11.dtd" [
	<!ENTITY ns_extend "http://ns.adobe.com/Extensibility/1.0/">
	<!ENTITY ns_ai "http://ns.adobe.com/AdobeIllustrator/10.0/">
	<!ENTITY ns_graphs "http://ns.adobe.com/Graphs/1.0/">
	<!ENTITY ns_vars "http://ns.adobe.com/Variables/1.0/">
	<!ENTITY ns_imrep "http://ns.adobe.com/ImageReplacement/1.0/">
	<!ENTITY ns_sfw "http://ns.adobe.com/SaveForWeb/1.0/">
	<!ENTITY ns_custom "http://ns.adobe.com/GenericCustomNamespace/1.0/">
	<!ENTITY ns_adobe_xpath "http://ns.adobe.com/XPath/1.0/">
	<!ENTITY st0 "fill:#FFFFFF;">
]>
<svg version="1.1" id="图层_1" xmlns:x="&ns_extend;" xmlns:i="&ns_ai;" xmlns:graph="&ns_graphs;"
	 xmlns="http://www.w3.org/2000/svg" xmlns:xlink="http://www.w3.org/1999/xlink" x="0px" y="0px" viewBox="0 0 200 200"
	 style="enable-background:new 0 0 200 200;" xml:space="preserve">
<metadata>
	<sfw  xmlns="&ns_sfw;">
		<slices></slices>
		<sliceSourceBounds  bottomLeftOrigin="true" height="187.06" width="187.06" x="6.47" y="6.47"></sliceSourceBounds>
	</sfw>
</metadata>
<circle style="&st0;" cx="100" cy="100" r="93.53"/>
<path d="M100,39.4c33.46,0,60.6,27.13,60.6,60.6s-27.13,60.6-60.6,60.6S39.4,133.46,39.4,100S66.54,39.4,100,39.4z M117.81,125.25
	H81.9c1.38,8.08,3.39,16.03,6.01,23.79c3.88,0.95,7.93,1.45,12.09,1.45c4.05,0,7.99-0.47,11.77-1.38
	C113.3,144.58,115.31,136.62,117.81,125.25z M143.74,125.25h-15.69c-1.04,6.52-2.48,12.97-4.29,19.31
	C132.08,140.12,139.01,133.43,143.74,125.25z M71.66,125.25h-15.4c4.67,8.06,11.46,14.68,19.64,19.13
	C74.11,138.1,72.69,131.71,71.66,125.25L71.66,125.25z M70.48,84.86H51.82c-1.54,4.9-2.32,10.01-2.31,15.14
	c0,5.28,0.81,10.37,2.31,15.15h18.57C69.44,105.07,69.47,94.92,70.48,84.86L70.48,84.86z M119.07,84.86H80.63
	c-1.08,10.07-1.12,20.22-0.1,30.3h38.64C120.19,105.08,120.16,94.92,119.07,84.86z M148.18,84.86h-18.96
	c1.01,10.07,1.05,20.22,0.1,30.3h18.86c1.54-4.9,2.32-10.01,2.31-15.15C150.5,94.72,149.69,89.63,148.18,84.86L148.18,84.86z
	 M76.04,55.53c-7.9,4.44-15.25,11.38-19.78,19.22H71.8C72.84,68.37,74.25,62.12,76.04,55.53z M100,49.5c-4.14,0-8.17,0.5-12.02,1.44
	c-2.55,7.78-4.53,15.74-5.94,23.81h35.62c-1.41-8.09-3.4-16.08-5.96-23.88C107.87,49.96,103.94,49.5,100,49.5z M123.6,55.35
	c1.67,6.11,3.32,13.34,4.3,19.4h15.84C138.98,66.53,132,59.8,123.6,55.35z"/>
</svg>
