<?xml version="1.0" encoding="utf-8"?>
<!-- Generator: Adobe Illustrator 23.0.0, SVG Export Plug-In . SVG Version: 6.00 Build 0)  -->
<!DOCTYPE svg PUBLIC "-//W3C//DTD SVG 1.1//EN" "http://www.w3.org/Graphics/SVG/1.1/DTD/svg11.dtd" [
	<!ENTITY ns_extend "http://ns.adobe.com/Extensibility/1.0/">
	<!ENTITY ns_ai "http://ns.adobe.com/AdobeIllustrator/10.0/">
	<!ENTITY ns_graphs "http://ns.adobe.com/Graphs/1.0/">
	<!ENTITY ns_vars "http://ns.adobe.com/Variables/1.0/">
	<!ENTITY ns_imrep "http://ns.adobe.com/ImageReplacement/1.0/">
	<!ENTITY ns_sfw "http://ns.adobe.com/SaveForWeb/1.0/">
	<!ENTITY ns_custom "http://ns.adobe.com/GenericCustomNamespace/1.0/">
	<!ENTITY ns_adobe_xpath "http://ns.adobe.com/XPath/1.0/">
	<!ENTITY st0 "fill:#FFFFFF;">
]>
<svg version="1.1" id="图层_1" xmlns:x="&ns_extend;" xmlns:i="&ns_ai;" xmlns:graph="&ns_graphs;"
	 xmlns="http://www.w3.org/2000/svg" xmlns:xlink="http://www.w3.org/1999/xlink" x="0px" y="0px" viewBox="0 0 200 200"
	 style="enable-background:new 0 0 200 200;" xml:space="preserve">
<metadata>
	<sfw  xmlns="&ns_sfw;">
		<slices></slices>
		<sliceSourceBounds  bottomLeftOrigin="true" height="187.06" width="187.06" x="6.47" y="6.47"></sliceSourceBounds>
	</sfw>
</metadata>
<circle style="&st0;" cx="100" cy="100" r="93.53"/>
<path d="M144.24,57.69c-0.04-0.07-0.09-0.12-0.17-0.15c-8.25-3.78-16.95-6.48-25.89-8.03c-0.17-0.03-0.33,0.05-0.42,0.2
	c-1.19,2.15-2.26,4.36-3.22,6.62c-9.64-1.46-19.44-1.46-29.08,0c-0.97-2.26-2.06-4.47-3.27-6.62c-0.09-0.14-0.25-0.22-0.42-0.2
	c-8.94,1.54-17.64,4.24-25.89,8.03c-0.07,0.03-0.13,0.08-0.17,0.15c-16.49,24.62-21.01,48.64-18.79,72.37
	c0.01,0.12,0.07,0.22,0.17,0.3c9.6,7.11,20.34,12.54,31.76,16.05c0.16,0.05,0.34-0.01,0.45-0.15c2.45-3.34,4.63-6.87,6.5-10.57
	c0.1-0.2,0.02-0.44-0.18-0.54c-0.01-0.01-0.03-0.01-0.04-0.02c-3.43-1.31-6.74-2.89-9.92-4.73c-0.19-0.11-0.26-0.36-0.14-0.56
	c0.03-0.05,0.06-0.09,0.1-0.12c0.67-0.5,1.33-1.01,1.97-1.54c0.12-0.1,0.27-0.12,0.41-0.06c20.82,9.5,43.35,9.5,63.92,0
	c0.14-0.07,0.3-0.05,0.42,0.05c0.65,0.53,1.3,1.05,1.98,1.55c0.18,0.13,0.22,0.39,0.08,0.57c-0.03,0.04-0.07,0.08-0.12,0.11
	c-3.17,1.85-6.49,3.43-9.93,4.72c-0.21,0.08-0.31,0.31-0.23,0.52c0.01,0.01,0.01,0.03,0.02,0.04c1.9,3.67,4.07,7.2,6.49,10.56
	c0.1,0.14,0.28,0.2,0.45,0.15c11.44-3.5,22.2-8.93,31.81-16.05c0.09-0.07,0.15-0.18,0.17-0.29
	C165.7,102.63,158.61,78.81,144.24,57.69L144.24,57.69z M78.91,115.6c-6.27,0-11.43-5.75-11.43-12.81s5.06-12.81,11.43-12.81
	c6.42,0,11.53,5.8,11.43,12.81C90.34,109.85,85.27,115.6,78.91,115.6z M121.17,115.6c-6.27,0-11.43-5.75-11.43-12.81
	s5.06-12.81,11.43-12.81c6.42,0,11.53,5.8,11.43,12.81C132.6,109.85,127.59,115.6,121.17,115.6z"/>
</svg>
