<?xml version="1.0" encoding="utf-8"?>
<!-- Generator: Adobe Illustrator 23.0.0, SVG Export Plug-In . SVG Version: 6.00 Build 0)  -->
<!DOCTYPE svg PUBLIC "-//W3C//DTD SVG 1.1//EN" "http://www.w3.org/Graphics/SVG/1.1/DTD/svg11.dtd" [
	<!ENTITY ns_extend "http://ns.adobe.com/Extensibility/1.0/">
	<!ENTITY ns_ai "http://ns.adobe.com/AdobeIllustrator/10.0/">
	<!ENTITY ns_graphs "http://ns.adobe.com/Graphs/1.0/">
	<!ENTITY ns_vars "http://ns.adobe.com/Variables/1.0/">
	<!ENTITY ns_imrep "http://ns.adobe.com/ImageReplacement/1.0/">
	<!ENTITY ns_sfw "http://ns.adobe.com/SaveForWeb/1.0/">
	<!ENTITY ns_custom "http://ns.adobe.com/GenericCustomNamespace/1.0/">
	<!ENTITY ns_adobe_xpath "http://ns.adobe.com/XPath/1.0/">
	<!ENTITY st0 "fill:#FFFFFF;">
	<!ENTITY st1 "fill:#231815;">
]>
<svg version="1.1" id="图层_1" xmlns:x="&ns_extend;" xmlns:i="&ns_ai;" xmlns:graph="&ns_graphs;"
	 xmlns="http://www.w3.org/2000/svg" xmlns:xlink="http://www.w3.org/1999/xlink" x="0px" y="0px" viewBox="0 0 200 200"
	 style="enable-background:new 0 0 200 200;" xml:space="preserve">
<metadata>
	<sfw  xmlns="&ns_sfw;">
		<slices></slices>
		<sliceSourceBounds  bottomLeftOrigin="true" height="187.06" width="187.06" x="6.47" y="6.47"></sliceSourceBounds>
	</sfw>
</metadata>
<circle style="&st0;" cx="100" cy="100" r="93.53"/>
<path style="&st1;" d="M147.08,78.17c0-1.11-0.02-2.21-0.07-3.29c4.74-3.53,8.85-7.95,12.11-13.01c-4.42,1.99-9.12,3.27-13.93,3.81
	c5.01-3.08,8.85-8.02,10.67-13.93c-4.69,2.85-9.88,4.88-15.4,5.94c-4.42-5.03-10.73-8.24-17.71-8.35
	c-13.4-0.22-24.26,11.1-24.26,25.28c0,2.02,0.21,3.97,0.63,5.86c-20.17-1.3-38.05-11.8-50-27.63c-2.09,3.79-3.28,8.22-3.28,12.97
	c0,8.98,4.28,16.97,10.79,21.68c-3.98-0.18-7.71-1.39-10.99-3.36v0.33c0,12.56,8.36,23.08,19.46,25.53
	c-2.03,0.58-4.18,0.88-6.39,0.87c-1.53-0.01-3.06-0.18-4.56-0.5c3.08,10.29,12.05,17.81,22.66,18.06c-8.3,6.89-18.76,11-30.12,10.97
	c-1.96,0-3.89-0.13-5.79-0.37c10.74,7.37,23.49,11.66,37.19,11.66C122.68,150.68,147.08,111.86,147.08,78.17L147.08,78.17z"/>
</svg>
