<?xml version="1.0" encoding="utf-8"?>
<!-- Generator: Adobe Illustrator 23.0.0, SVG Export Plug-In . SVG Version: 6.00 Build 0)  -->
<!DOCTYPE svg PUBLIC "-//W3C//DTD SVG 1.1//EN" "http://www.w3.org/Graphics/SVG/1.1/DTD/svg11.dtd" [
	<!ENTITY ns_extend "http://ns.adobe.com/Extensibility/1.0/">
	<!ENTITY ns_ai "http://ns.adobe.com/AdobeIllustrator/10.0/">
	<!ENTITY ns_graphs "http://ns.adobe.com/Graphs/1.0/">
	<!ENTITY ns_vars "http://ns.adobe.com/Variables/1.0/">
	<!ENTITY ns_imrep "http://ns.adobe.com/ImageReplacement/1.0/">
	<!ENTITY ns_sfw "http://ns.adobe.com/SaveForWeb/1.0/">
	<!ENTITY ns_custom "http://ns.adobe.com/GenericCustomNamespace/1.0/">
	<!ENTITY ns_adobe_xpath "http://ns.adobe.com/XPath/1.0/">
	<!ENTITY st0 "fill:#FFFFFF;">
]>
<svg version="1.1" id="图层_1" xmlns:x="&ns_extend;" xmlns:i="&ns_ai;" xmlns:graph="&ns_graphs;"
	 xmlns="http://www.w3.org/2000/svg" xmlns:xlink="http://www.w3.org/1999/xlink" x="0px" y="0px" viewBox="0 0 200 200"
	 style="enable-background:new 0 0 200 200;" xml:space="preserve">
<metadata>
	<sfw  xmlns="&ns_sfw;">
		<slices></slices>
		<sliceSourceBounds  bottomLeftOrigin="true" height="150" width="137.4" x="31.3" y="25"></sliceSourceBounds>
	</sfw>
</metadata>
<path d="M137.26,65.2c5.74-3.46,9.23-9.68,9.2-16.38c0-10.48-8.28-18.98-18.52-18.98c-4.42,0-8.69,1.62-12,4.54
	c-3.24-5.76-9.32-9.34-15.93-9.38c-6.8,0-12.72,3.78-15.94,9.38c-3.31-2.92-7.58-4.54-12-4.54c-10.22,0-18.52,8.49-18.52,18.98
	c0,7,3.7,13.09,9.2,16.38C43.84,75.83,31.3,94.3,31.3,115.33C31.3,148.29,62.07,175,100,175s68.7-26.72,68.7-59.67
	C168.71,94.3,156.18,75.82,137.26,65.2z"/>
<path style="fill:#FFFFFF;" d="M68.49,100.18c0,6.29,3.72,11.38,8.31,11.38c4.59,0,8.31-5.1,8.31-11.38c0,0,0,0,0,0
	c0-6.29-3.72-11.38-8.31-11.38C72.21,88.79,68.49,93.89,68.49,100.18C68.49,100.17,68.49,100.17,68.49,100.18z"/>
<path style="fill:#FFFFFF;" d="M122.63,114.87c-1.96,0-3.8-0.91-4.98-2.47l-6.3-8.27c-1.81-2.38-1.68-5.71,0.3-7.94l6.3-7.09
	c2.28-2.58,6.22-2.82,8.8-0.54c0.01,0.01,0.02,0.02,0.03,0.02c2.58,2.29,2.82,6.24,0.52,8.82l-2.88,3.25l3.18,4.17
	c2.09,2.74,1.57,6.66-1.17,8.75C125.33,114.42,124,114.88,122.63,114.87z"/>
</svg>
