<?xml version="1.0" encoding="utf-8"?>
<!-- Generator: Adobe Illustrator 23.0.0, SVG Export Plug-In . SVG Version: 6.00 Build 0)  -->
<!DOCTYPE svg PUBLIC "-//W3C//DTD SVG 1.1//EN" "http://www.w3.org/Graphics/SVG/1.1/DTD/svg11.dtd" [
	<!ENTITY ns_extend "http://ns.adobe.com/Extensibility/1.0/">
	<!ENTITY ns_ai "http://ns.adobe.com/AdobeIllustrator/10.0/">
	<!ENTITY ns_graphs "http://ns.adobe.com/Graphs/1.0/">
	<!ENTITY ns_vars "http://ns.adobe.com/Variables/1.0/">
	<!ENTITY ns_imrep "http://ns.adobe.com/ImageReplacement/1.0/">
	<!ENTITY ns_sfw "http://ns.adobe.com/SaveForWeb/1.0/">
	<!ENTITY ns_custom "http://ns.adobe.com/GenericCustomNamespace/1.0/">
	<!ENTITY ns_adobe_xpath "http://ns.adobe.com/XPath/1.0/">
]>
<svg version="1.1" id="图层_1" xmlns:x="&ns_extend;" xmlns:i="&ns_ai;" xmlns:graph="&ns_graphs;"
	 xmlns="http://www.w3.org/2000/svg" xmlns:xlink="http://www.w3.org/1999/xlink" x="0px" y="0px" viewBox="0 0 200 200"
	 style="enable-background:new 0 0 200 200;" xml:space="preserve">
<metadata>
	<sfw  xmlns="&ns_sfw;">
		<slices></slices>
		<sliceSourceBounds  bottomLeftOrigin="true" height="126.72" width="154.46" x="22.77" y="38.98"></sliceSourceBounds>
	</sfw>
</metadata>
<path d="M108.87,39.15c-14.35,0-27.57,3.78-27.57,3.78S59.02,32.35,47.7,34.62c-11.71,6.42-0.76,14.35,4.53,20.01
	c-11.33,9.82-18.5,23.03-19.64,37.01c-2.64,6.42-4.15,1.51-7.17,5.29c-1.51,1.89-4.91,17.37-0.38,23.03
	c7.17,6.42,11.33-0.76,19.26,7.93c3.78,4.91,8.69,9.06,14.35,12.84c1.51,1.51-4.15,4.15-1.51,12.46c1.51,3.02,15.1,3.4,18.88,1.89
	c2.27-1.89,0-4.15,1.51-4.53c1.13,0.38,1.89,0.76,3.02,1.13c1.51,1.13-1.89,9.44,4.53,9.06c2.27,0.38,7.17,0.38,12.46,0
	c3.02-0.76,1.89-5.29,3.02-5.29c3.02,0.38,6.04,0.38,9.06,0.38c8.68,0,13.97-0.38,21.52-2.27c4.53-0.76-1.89,5.66,1.89,6.8
	c1.51-0.76,15.1,1.89,17.75-1.51c4.53-3.78,0-15.48,3.78-17.37c17.75-10.95,22.66-24.92,22.66-44.18
	C177.97,65.2,149.65,39.15,108.87,39.15z M62.05,77.66c-3.02,0-5.66-2.64-5.66-5.66c0-3.02,2.64-5.66,5.66-5.66s5.66,2.64,5.66,5.66
	S65.07,77.66,62.05,77.66L62.05,77.66z M157.2,77.66c-1.13,1.51-2.64,2.27-4.53,2.27c-1.13,0-2.27-0.38-3.4-1.13
	c-7.17-5.29-15.86-9.06-25.68-10.95c-3.02-0.38-6.04-0.76-9.44-1.13c-3.02,0-5.66-2.64-5.29-6.04c0-3.02,2.64-5.66,6.04-5.29
	c3.78,0,7.17,0.76,10.57,1.13c11.33,1.89,21.9,6.42,30.59,13.22C158.71,71.62,159.09,75.4,157.2,77.66L157.2,77.66z"/>
</svg>
