<?xml version="1.0" encoding="utf-8"?>
<!-- Generator: Adobe Illustrator 23.0.0, SVG Export Plug-In . SVG Version: 6.00 Build 0)  -->
<!DOCTYPE svg PUBLIC "-//W3C//DTD SVG 1.1//EN" "http://www.w3.org/Graphics/SVG/1.1/DTD/svg11.dtd" [
	<!ENTITY ns_extend "http://ns.adobe.com/Extensibility/1.0/">
	<!ENTITY ns_ai "http://ns.adobe.com/AdobeIllustrator/10.0/">
	<!ENTITY ns_graphs "http://ns.adobe.com/Graphs/1.0/">
	<!ENTITY ns_vars "http://ns.adobe.com/Variables/1.0/">
	<!ENTITY ns_imrep "http://ns.adobe.com/ImageReplacement/1.0/">
	<!ENTITY ns_sfw "http://ns.adobe.com/SaveForWeb/1.0/">
	<!ENTITY ns_custom "http://ns.adobe.com/GenericCustomNamespace/1.0/">
	<!ENTITY ns_adobe_xpath "http://ns.adobe.com/XPath/1.0/">
]>
<svg version="1.1" id="图层_1" xmlns:x="&ns_extend;" xmlns:i="&ns_ai;" xmlns:graph="&ns_graphs;"
	 xmlns="http://www.w3.org/2000/svg" xmlns:xlink="http://www.w3.org/1999/xlink" x="0px" y="0px" viewBox="0 0 200 200"
	 style="enable-background:new 0 0 200 200;" xml:space="preserve">
<metadata>
	<sfw  xmlns="&ns_sfw;">
		<slices></slices>
		<sliceSourceBounds  bottomLeftOrigin="true" height="143.29" width="125.05" x="37.34" y="27.42"></sliceSourceBounds>
	</sfw>
</metadata>
<path d="M154.92,29.29H44.68c-4.07,0-7.33,3.27-7.33,7.26v131.59c0.07,3.99,4.94,5.88,7.77,3.12l14.38-14.96
	c1.89-1.89,5.01-1.74,6.75,0.29l10.53,12.13c1.74,2.03,4.87,2.11,6.75,0.29l12.78-12.64c1.89-1.89,5.01-1.74,6.75,0.29l10.53,12.13
	c1.74,2.03,4.87,2.11,6.75,0.29l12.78-12.64c1.89-1.89,5.01-1.74,6.75,0.29l13.65,14.23c1.67,1.89,4.58,2.18,6.46,0.51
	c1.45-1.31,2.4-3.2,2.4-5.37V36.56C162.25,32.56,158.98,29.29,154.92,29.29z M123.03,122.25H76.56c-3.2,0-5.81-2.61-5.81-5.81
	s2.61-5.81,5.81-5.81h46.48c3.2,0,5.81,2.61,5.81,5.81C128.84,119.64,126.23,122.25,123.03,122.25L123.03,122.25z M123.03,96.11
	H76.56c-3.2,0-5.81-2.61-5.81-5.81c0-3.2,2.61-5.81,5.81-5.81h46.48c3.2,0,5.81,2.61,5.81,5.81
	C128.84,93.49,126.23,96.11,123.03,96.11z M123.03,69.96H76.56c-3.2,0-5.81-2.61-5.81-5.81c0-3.2,2.61-5.81,5.81-5.81h46.48
	c3.2,0,5.81,2.61,5.81,5.81C128.84,67.35,126.23,69.96,123.03,69.96z"/>
</svg>
