<?xml version="1.0" encoding="utf-8"?>
<!-- Generator: Adobe Illustrator 23.0.0, SVG Export Plug-In . SVG Version: 6.00 Build 0)  -->
<!DOCTYPE svg PUBLIC "-//W3C//DTD SVG 1.1//EN" "http://www.w3.org/Graphics/SVG/1.1/DTD/svg11.dtd" [
	<!ENTITY ns_extend "http://ns.adobe.com/Extensibility/1.0/">
	<!ENTITY ns_ai "http://ns.adobe.com/AdobeIllustrator/10.0/">
	<!ENTITY ns_graphs "http://ns.adobe.com/Graphs/1.0/">
	<!ENTITY ns_vars "http://ns.adobe.com/Variables/1.0/">
	<!ENTITY ns_imrep "http://ns.adobe.com/ImageReplacement/1.0/">
	<!ENTITY ns_sfw "http://ns.adobe.com/SaveForWeb/1.0/">
	<!ENTITY ns_custom "http://ns.adobe.com/GenericCustomNamespace/1.0/">
	<!ENTITY ns_adobe_xpath "http://ns.adobe.com/XPath/1.0/">
]>
<svg version="1.1" id="图层_1" xmlns:x="&ns_extend;" xmlns:i="&ns_ai;" xmlns:graph="&ns_graphs;"
	 xmlns="http://www.w3.org/2000/svg" xmlns:xlink="http://www.w3.org/1999/xlink" x="0px" y="0px" viewBox="0 0 200 200"
	 style="enable-background:new 0 0 200 200;" xml:space="preserve">
<metadata>
	<sfw  xmlns="&ns_sfw;">
		<slices></slices>
		<sliceSourceBounds  bottomLeftOrigin="true" height="125.05" width="153.04" x="26.79" y="37.56"></sliceSourceBounds>
	</sfw>
</metadata>
<path d="M179.66,146.59c0.51,3.08-0.13,5.84-1.92,8.3s-4.23,3.95-7.31,4.46l-18.46,2.92c-2.97,0.51-5.72-0.13-8.23-1.92
	c-2.51-1.79-4.02-4.23-4.54-7.31l-15.69-99.35c-0.21-1.54-0.13-3,0.23-4.38c0.36-1.38,0.95-2.67,1.77-3.84
	c0.82-1.18,1.87-2.15,3.15-2.92c1.28-0.77,2.69-1.31,4.23-1.61l18.3-2.92c3.08-0.51,5.84,0.15,8.3,2c2.46,1.85,3.95,4.31,4.46,7.38
	L179.66,146.59z M102.3,37.39c3.08,0,5.69,1.08,7.84,3.23c2.15,2.15,3.23,4.77,3.23,7.84V151.2c0,3.08-1.08,5.69-3.23,7.84
	c-2.15,2.15-4.77,3.23-7.84,3.23H86.31c-3.08,0-5.69-1.08-7.84-3.23c-2.15-2.15-3.23-4.77-3.23-7.84V48.46
	c0-3.08,0.82-5.69,2.46-7.84s4.05-3.23,7.23-3.23C84.92,37.39,102.3,37.39,102.3,37.39z M102.3,114.9c1.03,0,1.9-0.49,2.61-1.46
	c0.72-0.97,1.08-2.13,1.08-3.46c0-1.44-0.36-2.61-1.08-3.54c-0.72-0.92-1.59-1.38-2.61-1.38H86.31c-1.03,0-1.9,0.46-2.61,1.38
	c-0.72,0.92-1.08,2.1-1.08,3.54c0,1.33,0.36,2.49,1.08,3.46c0.72,0.97,1.59,1.46,2.61,1.46H102.3z M102.3,95.37
	c1.03,0,1.9-0.49,2.61-1.46c0.72-0.97,1.08-2.18,1.08-3.61s-0.36-2.61-1.08-3.54c-0.72-0.92-1.59-1.38-2.61-1.38H86.31
	c-1.03,0-1.9,0.46-2.61,1.38c-0.72,0.92-1.08,2.1-1.08,3.54s0.36,2.64,1.08,3.61c0.72,0.97,1.59,1.46,2.61,1.46H102.3z M54.01,37.39
	c3.08,0,5.72,1.08,7.92,3.23s3.31,4.77,3.31,7.84V151.2c0,3.08-1.1,5.69-3.31,7.84s-4.84,3.23-7.92,3.23H38.01
	c-3.08,0-5.72-1.08-7.92-3.23c-2.2-2.15-3.31-4.77-3.31-7.84V48.46c0-3.08,1.1-5.69,3.31-7.84s4.84-3.23,7.92-3.23
	C38.01,37.39,54.01,37.39,54.01,37.39z M38.63,75.84c-1.13,0-2.05,0.46-2.77,1.38c-0.72,0.92-1.08,2.1-1.08,3.54
	c0,1.33,0.36,2.49,1.08,3.46c0.72,0.97,1.64,1.46,2.77,1.46h14.76c1.13,0,2.02-0.49,2.69-1.46c0.67-0.97,1-2.13,1-3.46
	c0-1.44-0.33-2.61-1-3.54c-0.67-0.92-1.56-1.38-2.69-1.38H38.63z M54.01,124.13c1.13,0,2.02-0.46,2.69-1.38c0.67-0.92,1-2.05,1-3.38
	c0-1.44-0.33-2.59-1-3.46c-0.67-0.87-1.56-1.31-2.69-1.31H38.63c-1.13,0-2.05,0.44-2.77,1.31c-0.72,0.87-1.08,2.02-1.08,3.46
	c0,1.33,0.36,2.46,1.08,3.38c0.72,0.92,1.64,1.38,2.77,1.38H54.01z M54.01,105.21c1.13,0,2.02-0.46,2.69-1.38
	c0.67-0.92,1-2.1,1-3.54s-0.33-2.61-1-3.54c-0.67-0.92-1.56-1.38-2.69-1.38H38.63c-1.13,0-2.05,0.46-2.77,1.38
	c-0.72,0.92-1.08,2.1-1.08,3.54s0.36,2.61,1.08,3.54c0.72,0.92,1.64,1.38,2.77,1.38H54.01z"/>
</svg>
