<?xml version="1.0" encoding="utf-8"?>
<!-- Generator: Adobe Illustrator 23.0.0, SVG Export Plug-In . SVG Version: 6.00 Build 0)  -->
<!DOCTYPE svg PUBLIC "-//W3C//DTD SVG 1.1//EN" "http://www.w3.org/Graphics/SVG/1.1/DTD/svg11.dtd" [
	<!ENTITY ns_extend "http://ns.adobe.com/Extensibility/1.0/">
	<!ENTITY ns_ai "http://ns.adobe.com/AdobeIllustrator/10.0/">
	<!ENTITY ns_graphs "http://ns.adobe.com/Graphs/1.0/">
	<!ENTITY ns_vars "http://ns.adobe.com/Variables/1.0/">
	<!ENTITY ns_imrep "http://ns.adobe.com/ImageReplacement/1.0/">
	<!ENTITY ns_sfw "http://ns.adobe.com/SaveForWeb/1.0/">
	<!ENTITY ns_custom "http://ns.adobe.com/GenericCustomNamespace/1.0/">
	<!ENTITY ns_adobe_xpath "http://ns.adobe.com/XPath/1.0/">
	<!ENTITY st0 "fill:#FFFFFF;">
]>
<svg version="1.1" id="图层_1" xmlns:x="&ns_extend;" xmlns:i="&ns_ai;" xmlns:graph="&ns_graphs;"
	 xmlns="http://www.w3.org/2000/svg" xmlns:xlink="http://www.w3.org/1999/xlink" x="0px" y="0px" viewBox="0 0 200 200"
	 style="enable-background:new 0 0 200 200;" xml:space="preserve">
<metadata>
	<sfw  xmlns="&ns_sfw;">
		<slices></slices>
		<sliceSourceBounds  bottomLeftOrigin="true" height="187.06" width="187.06" x="6.47" y="6.47"></sliceSourceBounds>
	</sfw>
</metadata>
<circle style="fill:#FFFFFF;" cx="100" cy="100" r="93.53"/>
<path d="M80.9,114.4c-9.42,10.22-25.34,10.87-35.56,1.45c-10.22-9.42-10.87-25.34-1.45-35.56c9.42-10.22,25.34-10.87,35.56-1.45
	c0.04,0.04,0.08,0.07,0.12,0.11l21.96-14.32c-3.94-9.65,0.68-20.67,10.33-24.61s20.67,0.68,24.61,10.33
	c3.94,9.65-0.68,20.67-10.33,24.61c-6.71,2.74-14.41,1.4-19.79-3.46L84.67,85.63c1.85,3.5,2.89,7.49,2.89,11.72
	c0,3.44-0.7,6.85-2.07,10.01l31.6,17.77c6.67-8.01,18.57-9.1,26.58-2.44c8.01,6.67,9.1,18.57,2.44,26.58s-18.57,9.1-26.58,2.44
	c-5.57-4.64-8-12.06-6.24-19.1L80.9,114.4L80.9,114.4z"/>
</svg>
