<?xml version="1.0" encoding="utf-8"?>
<!-- Generator: Adobe Illustrator 23.0.0, SVG Export Plug-In . SVG Version: 6.00 Build 0)  -->
<!DOCTYPE svg PUBLIC "-//W3C//DTD SVG 1.1//EN" "http://www.w3.org/Graphics/SVG/1.1/DTD/svg11.dtd" [
	<!ENTITY ns_extend "http://ns.adobe.com/Extensibility/1.0/">
	<!ENTITY ns_ai "http://ns.adobe.com/AdobeIllustrator/10.0/">
	<!ENTITY ns_graphs "http://ns.adobe.com/Graphs/1.0/">
	<!ENTITY ns_vars "http://ns.adobe.com/Variables/1.0/">
	<!ENTITY ns_imrep "http://ns.adobe.com/ImageReplacement/1.0/">
	<!ENTITY ns_sfw "http://ns.adobe.com/SaveForWeb/1.0/">
	<!ENTITY ns_custom "http://ns.adobe.com/GenericCustomNamespace/1.0/">
	<!ENTITY ns_adobe_xpath "http://ns.adobe.com/XPath/1.0/">
	<!ENTITY st0 "fill:#7D5321;">
]>
<svg version="1.1" id="图层_1" xmlns:x="&ns_extend;" xmlns:i="&ns_ai;" xmlns:graph="&ns_graphs;"
	 xmlns="http://www.w3.org/2000/svg" xmlns:xlink="http://www.w3.org/1999/xlink" x="0px" y="0px" viewBox="0 0 200 200"
	 style="enable-background:new 0 0 200 200;" xml:space="preserve">
<metadata>
	<sfw  xmlns="&ns_sfw;">
		<slices></slices>
		<sliceSourceBounds  bottomLeftOrigin="true" height="174.42" width="175.25" x="12.38" y="12.79"></sliceSourceBounds>
	</sfw>
</metadata>
<path style="&st0;" d="M57,68.72c0,6.16,5,11.16,11.16,11.16c6.16,0,11.16-5,11.16-11.16c0-6.16-5-11.16-11.16-11.16
	C62,57.56,57,62.55,57,68.72z"/>
<path style="&st0;" d="M100,98.24c-24.53,0-44.49,19.96-44.49,44.49s19.96,44.49,44.49,44.49s44.49-19.96,44.49-44.49
	S124.53,98.24,100,98.24z M100,171.03c-15.61,0-28.31-12.7-28.31-28.31s12.7-28.31,28.31-28.31c15.61,0,28.31,12.7,28.31,28.31
	S115.61,171.03,100,171.03z"/>
<path style="&st0;" d="M100,12.79c-48.32,0-87.62,31.07-87.62,69.27c0,18.36,8.93,35.64,25.15,48.66c1.49,1.2,3.28,1.78,5.06,1.78
	c2.37,0,4.72-1.04,6.32-3.03c2.79-3.48,2.24-8.58-1.25-11.37c-12.32-9.88-19.1-22.68-19.1-36.04c0-29.28,32.05-53.09,71.45-53.09
	c39.4,0,71.45,23.82,71.45,53.09c0,13.19-6.64,25.87-18.69,35.7c-3.46,2.82-3.98,7.92-1.15,11.38c2.82,3.46,7.92,3.98,11.38,1.15
	c15.89-12.96,24.64-30.09,24.64-48.23C187.62,43.86,148.32,12.79,100,12.79z"/>
<path style="&st0;" d="M85.17,135.98c0,5.96,4.83,10.78,10.78,10.78c5.96,0,10.78-4.83,10.78-10.78l0,0
	c0-5.96-4.83-10.78-10.78-10.78C90,125.2,85.17,130.03,85.17,135.98z"/>
</svg>
